<svg width="400" height="400" viewBox="0 0 400 400" fill="none" xmlns="http://www.w3.org/2000/svg">
<path d="M179.177 141.803C183.366 123.964 172.3 106.107 154.462 101.918C136.623 97.7291 118.765 108.795 114.576 126.634C110.387 144.472 121.453 162.33 139.292 166.519C157.131 170.708 174.988 159.642 179.177 141.803Z" fill="white" fill-opacity="0.101961"/>
<path d="M279.859 141.805C284.048 123.966 272.983 106.109 255.144 101.92C237.305 97.7307 219.447 108.796 215.258 126.635C211.069 144.474 222.135 162.331 239.974 166.52C257.813 170.709 275.67 159.644 279.859 141.805Z" fill="white"/>
<path d="M260.266 216.901C249.987 199.844 231.25 188.425 209.922 188.425H99.2379C66.8329 188.425 40.4362 214.793 40.4362 247.198C40.4362 279.632 66.8329 306 99.2379 306H190.188C168.86 306 150.123 294.581 139.844 277.525H99.2379C82.5228 277.525 68.9116 263.913 68.9116 247.198C68.9116 230.483 82.5228 216.901 99.2379 216.901H209.922C226.637 216.901 240.248 230.483 240.248 247.198C240.248 263.913 226.637 277.525 209.922 277.525H260.266C265.648 268.669 268.723 258.304 268.723 247.198C268.723 236.121 265.648 225.756 260.266 216.901Z" fill="white" fill-opacity="0.101961"/>
<path d="M209.922 188.425H190.188C168.86 188.425 150.123 199.844 139.844 216.901H260.266C249.987 199.844 231.25 188.425 209.922 188.425Z" fill="white" fill-opacity="0.101961"/>
<path d="M359.674 247.198C359.674 279.632 333.277 306 300.872 306H190.188C168.86 306 150.123 294.581 139.844 277.525C134.462 268.669 131.387 258.304 131.387 247.198C131.387 236.121 134.462 225.756 139.844 216.901H190.188C173.473 216.901 159.862 230.483 159.862 247.198C159.862 263.913 173.473 277.525 190.188 277.525H300.872C317.587 277.525 331.198 263.913 331.198 247.198C331.198 230.483 317.587 216.901 300.872 216.901H260.266C249.987 199.844 231.25 188.425 209.922 188.425H300.872C333.277 188.425 359.674 214.793 359.674 247.198Z" fill="white"/>
</svg>
